# xmcd
#
# Track frame offsets: 
#        150
#        17022
#        33437
#        49347
#        64432
#        83103
#        103241
#        120361
#        135441
#
# Disc length: 2032 seconds
#
# Revision: 0
# Processed by: cddbd v1.5.2PL0 Copyright (c) Steve Scherf et al.
# Submitted via: ExactAudioCopy v1.0b1
#
DISCID=7507ee09
DTITLE=Lori Lieberman - Letting Go
DYEAR=1978
DGENRE=Folk
TTITLE0=Let Me Down Easy
TTITLE1=Letting Go
TTITLE2=After The Thrill Is Gone
TTITLE3=You're The One
TTITLE4=Love Me Again
TTITLE5=Gingle
TTITLE6=Boston
TTITLE7=Late Last Night
TTITLE8=What I Would Do
EXTD=
EXTT0=
EXTT1=
EXTT2=
EXTT3=
EXTT4=
EXTT5=
EXTT6=
EXTT7=
EXTT8=
PLAYORDER=
